<svg width="44" height="44" xmlns="http://www.w3.org/2000/svg">
  <g fill="none" fill-rule="evenodd">
    <path d="M0 0h44v44H0z"/>
    <circle stroke="#F53030" stroke-width="2" cx="22" cy="22" r="21"/>
    <path fill="#F53030" d="M10 22.3044338c0 5.4354025 3.4380429 10.047488 8.2065134 11.6744831.6003868.1133005.819178-.2666338.819178-.5929392 0-.2923153-.0103134-1.06578-.0162068-2.0922825-3.3378556.7432512-4.042113-1.6496553-4.042113-1.6496553-.5458731-1.4215435-1.3326376-1.7999672-1.3326376-1.7999672-1.0895362-.7636453.0825072-.7477832.0825072-.7477832 1.2044568.0868637 1.8379938 1.2682102 1.8379938 1.2682102 1.0711194 1.8800329 2.808926 1.3369458 3.4925565 1.0219705.1090273-.7953695.4191657-1.3369459.7617177-1.6451232-2.6645385-.3104434-5.4660978-1.3656487-5.4660978-6.08046 0-1.3437439.467786-2.4420033 1.235397-3.3023318-.123024-.3111987-.534823-1.5620361.1178674-3.2555009 0 0 1.0077657-.3315928 3.2995488 1.2606569.9576721-.2726766 1.9838546-.4093925 3.0041437-.4139245 1.0195525.004532 2.045735.1412479 3.0048805.4139245 2.2903097-1.5922497 3.2966021-1.2606569 3.2966021-1.2606569.6541637 1.6934648.2423647 2.9443022.1193407 3.2555009.7690843.8603285 1.233187 1.9585879 1.233187 3.3023318 0 4.7261414-2.8052427 5.7662399-5.4786212 6.0713959.4309524.3799343.8140213 1.130739.8140213 2.2780953 0 1.6451232-.0139968 2.9722497-.0139968 3.3755995 0 .3293267.2158446.7115271.8250714.5914285C30.5649038 32.3473898 34 27.7390809 34 22.3044338 34 15.5086701 28.6267227 10 21.998895 10 15.3732773 10 10 15.5086701 10 22.3044338z"/>
  </g>
</svg>
