<svg width="44" height="44" xmlns="http://www.w3.org/2000/svg">
  <path fill="none" d="M-1-1h582v402H-1z"/>
  <g>
    <g fill-rule="evenodd" fill="none">
      <circle r="21" cy="22" cx="22" stroke-width="2" stroke="#F53030"/>
      <path stroke="null" fill="#F53030" d="M17.064926 30.776605V18.58418h-3.768377v12.192425h3.768377zm0-16.514108c-.022448-1.091093-.749623-1.921838-1.930946-1.921838-1.181623 0-1.953693.830745-1.953693 1.921838 0 1.0674.749623 1.922178 1.908498 1.922178h.022448c1.20407 0 1.953693-.854778 1.953693-1.922178zm6.147887 16.514108v-6.946656c0-.371773.026872-.743546.136198-1.008572.298887-.74318.979129-1.512499 2.12132-1.512499 1.496301 0 2.434699.849194 2.434699 2.521071v6.946656h3.793803v-7.132539c0-3.820808-2.039599-5.598699-4.760179-5.598699-2.230646 0-3.209775 1.2471-3.753446 2.095921l.027238-1.630686h-3.787247c.054476 1.167224 0 12.266004 0 12.266004h3.787613z"/>
    </g>
  </g>
</svg>
