<svg fill="#F53030" width="44" height="44" xmlns="http://www.w3.org/2000/svg">
  <g fill="none" fill-rule="evenodd">
    <path d="M0 0h44v44H0z"/>
    <circle stroke="#F53030" stroke-width="2" cx="22" cy="22" r="21"/>
    <path fill="#F53030" d="M13.1115479 18.9319176c-.5073561-.3181477-.9862328-.755688-1.4363287-1.3124814C11.2251233 17.0626427 11 16.5454609 11 16.0681695c0-.5908258.1698219-1.0833202.5094658-1.4773436C11.8491096 14.196942 12.3340137 14 12.9641781 14h18.0714931c.5317672 0 .9922603.177973 1.3810274.5340586C32.8054658 14.8901442 33 15.3182 33 15.8182262c0 .5984971-.200411 1.1704936-.6016849 1.7157104-.4011233.5454957-.9001918 1.0114894-1.4976576 1.3977021-3.0772876 1.9773698-4.9926438 3.2083965-5.7454657 3.6932196-.0818219.0531409-.255863.1684886-.5218219.3466012-.2659589.1781125-.4868631.3221925-.6628631.4319612-.176.1097686-.3887671.2327876-.6383013.3691964-.2495343.1361299-.4850548.2386457-.7059589.3065711-.2210548.0683439-.425685.1022369-.6138904.1022369h-.0247124c-.1882054 0-.3928356-.033893-.6138904-.1022369-.2209041-.0679254-.4562739-.1703018-.7059589-.3065711-.2496849-.1362693-.462452-.2594278-.638452-.3691964-.1758493-.1097687-.3969041-.2538487-.662863-.4319612-.265959-.1779731-.4398494-.2934603-.5216713-.3466012-.7448356-.4846836-1.8169589-1.1759331-3.2165205-2.0736091-1.3995617-.897676-2.2384247-1.4375926-2.5167398-1.6193316zm18.6606713 1.2158237C32.2388904 19.8523284 32.648 19.522604 33 19.1591262v9.0225081c0 .5001657-.1921233.9279426-.5769726 1.2841676C32.0383288 29.822027 31.5758767 30 31.0358219 30H12.9643288c-.5402055 0-1.0026576-.177973-1.3873562-.5341981C11.192274 29.1097163 11 28.6818 11 28.1816343v-9.0225081c.360137.3711491.7734658.7008735 1.2399863.9886151 2.9627671 1.8635564 4.9965616 3.1704587 6.1015342 3.9204282.4665206.3181478.8450411.5664174 1.1355617.744251.2905205.1781125.6773288.3598514 1.1601233.5454957.4827945.1856443.9330411.2783967 1.3504383.2783967h.024863c.4173973 0 .8674932-.0927524 1.3502877-.2783967.4829452-.1856443.8696028-.3673832 1.1601233-.5454957.2906712-.1778336.6691918-.4261032 1.1357123-.744251 1.3911233-.9318479 3.4292877-2.2387502 6.1135891-3.9204282z"/>
  </g>
</svg>
