<svg width="44" height="44" xmlns="http://www.w3.org/2000/svg">
  <g fill="none" fill-rule="evenodd">
    <path d="M0 0h44v44H0z"/>
    <circle stroke="#F53030" stroke-width="2" cx="22" cy="22" r="21"/>
    <path fill="#F53030" d="M30.9886676 11.9209704l-3.1427971 18.8567829c-.0409221.2373479-.1718706.4214943-.3928497.5524448-.1145817.0654753-.2414381.0982125-.3805731.0982125-.0900285 0-.1882399-.0204608-.2946372-.0613828l-5.5612778-2.271162-2.9709254 3.6215827c-.1473194.1882414-.3478344.2823606-.601551.2823606-.1063973 0-.1964245-.0163685-.2700842-.0491062-.1555037-.0572908-.2803141-.1534562-.3744348-.2884989-.0941207-.1350428-.1411803-.284406-.1411803-.4480942v-4.2845164l10.6069404-13.0008679-13.1236335 11.35581-4.84923776-1.9888013c-.30282311-.1145817-.46650883-.3396496-.49106205-.6752103-.01636882-.3273764.11457975-.5688128.39284964-.7243166L29.8223953 11.110718c.1227661-.0736597.2537147-.110489.3928496-.110489.1636882 0 .3110053.0450136.4419558.1350421.2700855.1964258.3805734.4583229.3314669.7856993z"/>
  </g>
</svg>
